<svg width="512" height="512" viewBox="0 0 512 512" fill="none" xmlns="http://www.w3.org/2000/svg" xmlns:xlink="http://www.w3.org/1999/xlink"><rect id="_r_8_" width="512" height="512" x="0" y="0" rx="128" fill="url(#_r_9_)" stroke="#FFFFFF" stroke-width="0" stroke-opacity="100%" paint-order="stroke"></rect><clipPath id="clip"><use xlink:href="#_r_8_"></use></clipPath><defs><radialGradient id="_r_9_" cx="50%" cy="50%" r="100%" fx="50%" fy="100%" gradientUnits="objectBoundingBox"><stop stop-color="#ffffff"></stop><stop offset="1" stop-color="#666666"></stop></radialGradient><radialGradient id="_r_a_" cx="0" cy="0" r="1" gradientUnits="userSpaceOnUse" gradientTransform="translate(256) rotate(90) scale(512)"><stop stop-color="white"></stop><stop offset="1" stop-color="white" stop-opacity="0"></stop></radialGradient></defs><svg xmlns="http://www.w3.org/2000/svg" width="352" height="352" viewBox="0 0 16 16" x="80" y="80" alignment-baseline="middle" style="color: rgb(35, 35, 35); width: 352px; height: 352px;"><path fill="currentColor" fill-rule="evenodd" d="M11.25 2.5a2.25 2.25 0 0 0-2.154 2.904l.13.43l-.317.318l-6.254 6.253l-.53-.53l.53.53a.664.664 0 0 0 .94.94L9.848 7.09l.318-.318l.43.13a2.25 2.25 0 0 0 2.685-3.124l-1.5 1.501a.75.75 0 1 1-1.061-1.06l1.5-1.5a2.24 2.24 0 0 0-.97-.22ZM7.5 4.75a3.75 3.75 0 1 1 3.114 3.696L10.061 9l.939.94l.47-.47l.53-.53l.53.53l1.875 1.875a2.164 2.164 0 1 1-3.06 3.06L9.47 12.53L8.94 12l.53-.53l.47-.47l-.94-.94l-4.345 4.345l-.53-.53l.53.53a2.164 2.164 0 1 1-3.06-3.06L5.939 7L3.5 4.56l-.617.617l-.507-.761l-1-1.5l-.341-.512l.435-.434l.5-.5l.434-.435l.512.341l1.5 1l.761.507l-.616.617L7 5.94l.554-.554A4 4 0 0 1 7.5 4.75m4.5 6.31l1.345 1.345a.664.664 0 0 1-.94.94L11.061 12z" clip-rule="evenodd"></path></svg></svg>